<svg version="1.1" viewBox="0.0 0.0 377.9527559055118 377.9527559055118" fill="none" stroke="none" stroke-linecap="square" stroke-miterlimit="10" xmlns:xlink="http://www.w3.org/1999/xlink" xmlns="http://www.w3.org/2000/svg"><clipPath id="p.0"><path d="m0 0l377.95276 0l0 377.95276l-377.95276 0l0 -377.95276z" clip-rule="nonzero"/></clipPath><g clip-path="url(#p.0)"><path fill="#000000" fill-opacity="0.0" d="m0 0l377.95276 0l0 377.95276l-377.95276 0z" fill-rule="evenodd"/><path fill="#6c63ff" d="m22.446194 65.41845l0 0c0 -19.871918 16.109371 -35.981285 35.981285 -35.981285l260.63583 0c9.542847 0 18.694824 3.7908726 25.442627 10.538675c6.7478027 6.747799 10.538666 15.89978 10.538666 25.442612l0 247.21854c0 19.871887 -16.109375 35.981262 -35.981293 35.981262l-260.63583 0c-19.871914 0 -35.981285 -16.109375 -35.981285 -35.981262z" fill-rule="evenodd"/><path stroke="#9e9e9e" stroke-width="8.0" stroke-linejoin="round" stroke-linecap="butt" d="m22.446194 65.41845l0 0c0 -19.871918 16.109371 -35.981285 35.981285 -35.981285l260.63583 0c9.542847 0 18.694824 3.7908726 25.442627 10.538675c6.7478027 6.747799 10.538666 15.89978 10.538666 25.442612l0 247.21854c0 19.871887 -16.109375 35.981262 -35.981293 35.981262l-260.63583 0c-19.871914 0 -35.981285 -16.109375 -35.981285 -35.981262z" fill-rule="evenodd"/><path fill="#6c63ff" d="m23.245407 320.39148l0 -263.37704c0 -7.2914886 2.896532 -14.284336 8.052391 -19.440193c5.155861 -5.155861 12.148708 -8.052393 19.440193 -8.052393l55.65702 0c0.0014648438 0 0.0026550293 0.0011863708 0.0026550293 0.002653122l-0.0026550293 318.35956l0 0c0 0.0014648438 -0.0011901855 0.0026550293 -0.0026550293 0.0026550293l-55.654366 -0.0026550293l0 0c-15.183735 0 -27.492584 -12.308868 -27.492584 -27.492584z" fill-rule="evenodd"/><path stroke="#9e9e9e" stroke-width="8.0" stroke-linejoin="round" stroke-linecap="butt" d="m23.245407 320.39148l0 -263.37704c0 -7.2914886 2.896532 -14.284336 8.052391 -19.440193c5.155861 -5.155861 12.148708 -8.052393 19.440193 -8.052393l55.65702 0c0.0014648438 0 0.0026550293 0.0011863708 0.0026550293 0.002653122l-0.0026550293 318.35956l0 0c0 0.0014648438 -0.0011901855 0.0026550293 -0.0026550293 0.0026550293l-55.654366 -0.0026550293l0 0c-15.183735 0 -27.492584 -12.308868 -27.492584 -27.492584z" fill-rule="evenodd"/><path fill="#3f3e55" d="m355.50656 320.8647l0 -264.03845c0 -7.2914886 -2.8965454 -14.284336 -8.052399 -19.440193c-5.1558533 -5.155861 -12.148712 -8.052393 -19.440186 -8.052393l-55.657013 0c-0.0014648438 0 -0.0026550293 0.0011901855 -0.0026550293 0.002658844l0.0026550293 319.02097l0 0c0 0.0014648438 0.0011901855 0.0026550293 0.0026550293 0.0026550293l55.654358 -0.0026550293l0 0c15.183746 0 27.492584 -12.308838 27.492584 -27.492584z" fill-rule="evenodd"/><path stroke="#9e9e9e" stroke-width="8.0" stroke-linejoin="round" stroke-linecap="butt" d="m355.50656 320.8647l0 -264.03845c0 -7.2914886 -2.8965454 -14.284336 -8.052399 -19.440193c-5.1558533 -5.155861 -12.148712 -8.052393 -19.440186 -8.052393l-55.657013 0c-0.0014648438 0 -0.0026550293 0.0011901855 -0.0026550293 0.002658844l0.0026550293 319.02097l0 0c0 0.0014648438 0.0011901855 0.0026550293 0.0026550293 0.0026550293l55.654358 -0.0026550293l0 0c15.183746 0 27.492584 -12.308838 27.492584 -27.492584z" fill-rule="evenodd"/><path fill="#3f3e55" d="m106.396324 29.526823l83.149605 0l0 319.02362l-83.149605 0z" fill-rule="evenodd"/><path stroke="#9e9e9e" stroke-width="8.0" stroke-linejoin="round" stroke-linecap="butt" d="m106.396324 29.526823l83.149605 0l0 319.02362l-83.149605 0z" fill-rule="evenodd"/><path fill="#000000" fill-opacity="0.0" d="m22.745407 85.034615l332.0 0" fill-rule="evenodd"/><path stroke="#9e9e9e" stroke-width="8.0" stroke-linejoin="round" stroke-linecap="butt" d="m22.745407 85.034615l332.0 0" fill-rule="evenodd"/></g></svg>