<?xml version="1.0" encoding="UTF-8" standalone="no"?>
<!-- Generator: Adobe Illustrator 19.0.0, SVG Export Plug-In . SVG Version: 6.00 Build 0)  -->

<svg
   version="1.1"
   id="Layer_1"
   x="0px"
   y="0px"
   viewBox="0 0 491.521 491.521"
   style="enable-background:new 0 0 491.521 491.521;"
   xml:space="preserve"
   sodipodi:docname="logo.svg"
   inkscape:version="1.1 (c4e8f9e, 2021-05-24)"
   xmlns:inkscape="http://www.inkscape.org/namespaces/inkscape"
   xmlns:sodipodi="http://sodipodi.sourceforge.net/DTD/sodipodi-0.dtd"
   xmlns="http://www.w3.org/2000/svg"
   xmlns:svg="http://www.w3.org/2000/svg"><defs
   id="defs1401"><clipPath
     id="p.0"><path
       d="M 0,0 H 377.95276 V 377.95276 H 0 Z"
       clip-rule="nonzero"
       id="path2236" /></clipPath></defs><sodipodi:namedview
   id="namedview1399"
   pagecolor="#ffffff"
   bordercolor="#666666"
   borderopacity="1.0"
   inkscape:pageshadow="2"
   inkscape:pageopacity="0.0"
   inkscape:pagecheckerboard="0"
   showgrid="false"
   inkscape:zoom="1.5319793"
   inkscape:cx="159.27108"
   inkscape:cy="250.9825"
   inkscape:window-width="1731"
   inkscape:window-height="1103"
   inkscape:window-x="503"
   inkscape:window-y="114"
   inkscape:window-maximized="0"
   inkscape:current-layer="Layer_1" />





<g
   id="g1368">
</g>
<g
   id="g1370">
</g>
<g
   id="g1372">
</g>
<g
   id="g1374">
</g>
<g
   id="g1376">
</g>
<g
   id="g1378">
</g>
<g
   id="g1380">
</g>
<g
   id="g1382">
</g>
<g
   id="g1384">
</g>
<g
   id="g1386">
</g>
<g
   id="g1388">
</g>
<g
   id="g1390">
</g>
<g
   id="g1392">
</g>
<g
   id="g1394">
</g>
<g
   id="g1396">
</g>
<g
   clip-path="url(#p.0)"
   id="g2273"
   transform="matrix(1.2158836,0,0,1.2987828,13.375611,16.55673)"><path
     fill="#000000"
     fill-opacity="0"
     d="M 0,0 H 377.95276 V 377.95276 H 0 Z"
     fill-rule="evenodd"
     id="path2239" /><path
     shape-rendering="crispEdges"
     fill="#aaa7ff"
     d="m 37.89501,44.716534 h 75.54068 v 44.21522 H 37.89501 Z"
     fill-rule="nonzero"
     id="path2241" /><path
     shape-rendering="crispEdges"
     fill="#ffffff"
     d="m 113.43569,44.716534 h 75.54069 v 44.21522 h -75.54069 z"
     fill-rule="nonzero"
     id="path2243" /><path
     shape-rendering="crispEdges"
     fill="#aaa7ff"
     d="m 188.97638,44.716534 h 75.54068 v 44.21522 h -75.54068 z"
     fill-rule="nonzero"
     id="path2245" /><path
     shape-rendering="crispEdges"
     fill="#ffffff"
     d="m 264.51706,44.716534 h 75.54068 v 44.21522 h -75.54068 z"
     fill-rule="nonzero"
     id="path2247" /><path
     shape-rendering="crispEdges"
     fill="#aaa7ff"
     d="m 37.89501,88.931755 h 75.54068 V 333.23619 H 37.89501 Z"
     fill-rule="nonzero"
     id="path2249" /><path
     shape-rendering="crispEdges"
     fill="#ffffff"
     d="m 113.43569,88.931755 h 75.54069 V 333.23619 h -75.54069 z"
     fill-rule="nonzero"
     id="path2251" /><path
     shape-rendering="crispEdges"
     fill="#aaa7ff"
     d="m 188.97638,88.931755 h 75.54068 V 333.23619 h -75.54068 z"
     fill-rule="nonzero"
     id="path2253" /><path
     shape-rendering="crispEdges"
     fill="#ffffff"
     d="m 264.51706,88.931755 h 75.54068 V 333.23619 h -75.54068 z"
     fill-rule="nonzero"
     id="path2255" /><path
     stroke="#cccccc"
     stroke-width="24"
     stroke-linecap="butt"
     d="M 37.89501,32.716534 V 345.23621"
     fill-rule="nonzero"
     id="path2257" /><path
     stroke="#cccccc"
     stroke-width="24"
     stroke-linecap="butt"
     d="M 113.43569,32.716534 V 345.23621"
     fill-rule="nonzero"
     id="path2259" /><path
     stroke="#cccccc"
     stroke-width="24"
     stroke-linecap="butt"
     d="M 188.97638,32.716534 V 345.23621"
     fill-rule="nonzero"
     id="path2261" /><path
     stroke="#cccccc"
     stroke-width="24"
     stroke-linecap="butt"
     d="M 264.51706,32.716534 V 345.23621"
     fill-rule="nonzero"
     id="path2263" /><path
     stroke="#cccccc"
     stroke-width="24"
     stroke-linecap="butt"
     d="M 340.05774,32.716534 V 345.23621"
     fill-rule="nonzero"
     id="path2265" /><path
     stroke="#cccccc"
     stroke-width="24"
     stroke-linecap="butt"
     d="M 25.895014,44.716534 H 352.05773"
     fill-rule="nonzero"
     id="path2267" /><path
     stroke="#cccccc"
     stroke-width="24"
     stroke-linecap="butt"
     d="M 25.895014,88.931755 H 352.05773"
     fill-rule="nonzero"
     id="path2269" /><path
     stroke="#cccccc"
     stroke-width="24"
     stroke-linecap="butt"
     d="M 25.895014,333.2362 H 352.05773"
     fill-rule="nonzero"
     id="path2271" /></g><path
   style="fill:#2f4859"
   d="m 74.657685,69.374873 c -48.151,48.150997 -48.152,126.219997 -0.001,174.370997 48.151995,48.151 126.220995,48.151 174.371995,0 48.152,-48.151 48.151,-126.22 0,-174.370997 -48.151,-48.151 -126.22,-48.151 -174.370995,0 z M 243.28968,238.00787 c -44.982,44.981 -117.912,44.981 -162.893995,0 -44.982,-44.983 -44.981,-117.913 0.001,-162.894997 44.980995,-44.981 117.909995,-44.981 162.892995,0 44.982,44.981997 44.982,117.911997 0,162.894997 z"
   id="path1358" /><circle
   style="opacity:0.75;fill:#ffffff;enable-background:new"
   cx="161.83969"
   cy="156.54187"
   id="ellipse1360"
   r="115.184" /><path
   style="fill:#3a556a"
   d="m 276.05168,47.634873 c -63.076,-63.076 -165.342,-63.076 -228.417995,0 -63.075,63.074997 -63.076,165.340997 0,228.417997 57.386995,57.386 147.121995,62.38 210.359995,15.345 l 24.842,24.842 33.404,-33.404 -24.842,-24.842 c 47.035,-63.239 42.041,-152.973 -15.346,-210.358997 z m -27.023,196.110997 c -48.151,48.151 -126.22,48.151 -174.371995,0 -48.151,-48.151 -48.15,-126.22 0.001,-174.370997 48.150995,-48.151 126.219995,-48.151 174.370995,0 48.151,48.150997 48.152,126.219997 0,174.370997 z"
   id="path1362" /><path
   style="fill:#2f4859"
   d="m 326.03368,273.04187 -52.992,52.992 c -2.596,2.596 -2.596,6.805 0.001,9.402 l 154.462,154.463 c 2.597,2.596 6.806,2.596 9.403,0 l 52.992,-52.992 c 2.596,-2.597 2.596,-6.806 0,-9.403 l -154.463,-154.462 c -2.596,-2.597 -6.806,-2.597 -9.403,0 z"
   id="path1364" /><rect
   x="-44.11385"
   y="-465.51437"
   transform="rotate(135)"
   style="fill:#6c63ff;fill-opacity:1;stroke-width:0.99999"
   width="88.237152"
   height="16.936838"
   id="rect1366" /></svg>
