<?xml version="1.0" encoding="UTF-8" standalone="no"?>
<svg
   data-name="Layer 1"
   width="779.13499"
   height="550.24072"
   viewBox="0 0 779.13499 550.24072"
   version="1.1"
   id="svg530"
   sodipodi:docname="undraw_metrics_re_6g90.svg"
   inkscape:version="1.1 (c4e8f9e, 2021-05-24)"
   xmlns:inkscape="http://www.inkscape.org/namespaces/inkscape"
   xmlns:sodipodi="http://sodipodi.sourceforge.net/DTD/sodipodi-0.dtd"
   xmlns="http://www.w3.org/2000/svg"
   xmlns:svg="http://www.w3.org/2000/svg">
  <defs
     id="defs534" />
  <sodipodi:namedview
     id="namedview532"
     pagecolor="#ffffff"
     bordercolor="#666666"
     borderopacity="1.0"
     inkscape:pageshadow="2"
     inkscape:pageopacity="0.0"
     inkscape:pagecheckerboard="0"
     showgrid="false"
     inkscape:zoom="0.96766994"
     inkscape:cx="490.35315"
     inkscape:cy="207.71545"
     inkscape:window-width="1132"
     inkscape:window-height="1070"
     inkscape:window-x="0"
     inkscape:window-y="0"
     inkscape:window-maximized="0"
     inkscape:current-layer="svg530" />
  <path
     d="M262.71619,725.12036l-.95117-1.75879c12.75342-6.89746,28.62573-15.481,36.916-29.56738,8.17237-13.88623,8.35572-32.74268.47852-49.21094-6.70361-14.01562-19.01782-26.57226-35.61108-36.313-3.273-1.92138-6.70874-3.74218-10.0315-5.50341-8.03149-4.25635-16.33642-8.65821-23.18432-14.90284-9.43165-8.60107-16.56788-23.03466-11.249-35.89111a23.85566,23.85566,0,0,1,20.67749-14.46728l.1128,1.99707a21.8606,21.8606,0,0,0-18.94776,13.248c-4.94263,11.94727,1.83862,25.50489,10.75415,33.63574,6.66065,6.07374,14.85181,10.415,22.7732,14.61329,3.34155,1.771,6.79711,3.60253,10.10766,5.54589,16.93848,9.94336,29.52637,22.79786,36.40259,37.17432,8.1604,17.06055,7.94629,36.63672-.55908,51.08887C291.83191,709.37476,275.68811,718.10571,262.71619,725.12036Z"
     transform="translate(-210.43251 -174.87964)"
     fill="#f1f1f1"
     id="path454" />
  <ellipse
     cx="42.00438"
     cy="364.66713"
     rx="17.5"
     ry="8.5"
     fill="#f1f1f1"
     id="ellipse456" />
  <ellipse
     cx="56.00438"
     cy="420.66713"
     rx="17.5"
     ry="8.5"
     fill="#f1f1f1"
     id="ellipse458" />
  <ellipse
     cx="24.00438"
     cy="429.66713"
     rx="17.5"
     ry="8.5"
     fill="#f1f1f1"
     id="ellipse460" />
  <ellipse
     cx="74.00438"
     cy="476.66713"
     rx="17.5"
     ry="8.5"
     fill="#f1f1f1"
     id="ellipse462" />
  <ellipse
     cx="109.00438"
     cy="476.66713"
     rx="17.5"
     ry="8.5"
     fill="#f1f1f1"
     id="ellipse464" />
  <path
     d="M485.06053,399.365a9.97532,9.97532,0,0,0-7.666,3.58362l-44.80957-1.40076-1.7539-7.55432-23.18946,11.31628,3,20.68915,68.29029-8.7439a9.99612,9.99612,0,1,0,6.12866-17.89007Z"
     transform="translate(-210.43251 -174.87964)"
     fill="#9f616a"
     id="path496" />
  <polygon
     points="191.627 537.085 203.887 537.085 209.72 489.797 191.625 489.798 191.627 537.085"
     fill="#9f616a"
     id="polygon498" />
  <path
     d="M398.93258,707.96221l24.144-.001h.001a15.3873,15.3873,0,0,1,15.38647,15.38623v.5l-39.53076.00146Z"
     transform="translate(-210.43251 -174.87964)"
     fill="#2f2e41"
     id="path500" />
  <polygon
     points="145.367 527.336 157.145 530.74 175.877 486.93 158.494 481.907 145.367 527.336"
     fill="#9f616a"
     id="polygon502" />
  <path
     d="M353.90611,697.50228l23.19508,6.70245.00094.00027a15.38729,15.38729,0,0,1,10.50969,19.05325l-.13882.48034-37.977-10.974Z"
     transform="translate(-210.43251 -174.87964)"
     fill="#2f2e41"
     id="path504" />
  <path
     d="M387.0043,506.62745s-4.36065,12.16644,2.51849,28.76629l5.30827,68.36757,1.57088,97.23228h22.35039l13.52613-99.12205,8.12348-89.87795Z"
     transform="translate(-210.43251 -174.87964)"
     fill="#2f2e41"
     id="path506" />
  <path
     d="M374.43342,506.62745s-4.36066,12.16644,2.51849,28.76629l5.30826,68.36757L355.83106,696.365h22.35039l41.52613-94.49349,8.12348-89.87795Z"
     transform="translate(-210.43251 -174.87964)"
     fill="#2f2e41"
     id="path508" />
  <circle
     cx="229.56703"
     cy="150.37671"
     r="24.56103"
     fill="#9f616a"
     id="circle510" />
  <path
     d="M443.28477,385.00087l-4.97733-23.12665-25.3443-14.38992-5.13925,7.195s-36.26449,9.52971-31.87866,51.172,2.38583,61.64229,2.38583,61.64229l-10,46s3.07821.52876,73.72947,12.87144l3-100Z"
     transform="translate(-210.43251 -174.87964)"
     fill="#cbcbcb"
     id="path512" />
  <polygon
     points="208.266 435.17 185.251 481.659 185.251 494.985 208.266 435.17"
     opacity="0.1"
     id="polygon514" />
  <path
     d="M413.51771,333.02513c2.34185,6.27154,11.20293,7.14055,14.32845,1.22045a8.05532,8.05532,0,0,0,.59139-1.439c.85617-2.84351.31764-5.97591,1.8989-8.69474a4.59047,4.59047,0,0,1,1.60475-1.65782c5.25606-3.10017,10.42979,6.7369,15.31761,3.98469,2.9971-1.68758,2.35605-6.58835,5.02308-8.76033,3.52005-2.86665,8.6045,1.40286,13.11791.91535,5.02171-.54242,7.398-6.904,6.30631-11.83552-1.3314-6.0142-6.03657-10.89566-11.55789-13.62665s-11.79477-3.55561-17.95268-3.70867c-6.99662-.17391-14.31787.56876-20.23379,4.30839-7.19438,4.5478-11.24768,13.01406-12.14491,21.4779C409.27105,320.35787,411.60534,327.90375,413.51771,333.02513Z"
     transform="translate(-210.43251 -174.87964)"
     fill="#2f2e41"
     id="path516" />
  <path
     d="M533.87254,501.6117c.03629.00039.07232-.00038.10861-.0023a72.88485,72.88485,0,0,0,1.63072-145.467,1.66268,1.66268,0,0,0-1.2584.43618,1.64558,1.64558,0,0,0-.53753,1.2048l-1.59355,142.145a1.66856,1.66856,0,0,0,1.65015,1.68331Z"
     transform="translate(-210.43251 -174.87964)"
     fill="#3f3d56"
     id="path518" />
  <path
     d="M476.71192,379.64723a2.14626,2.14626,0,0,1,1.50641.64339L527.153,430.33479a2.12319,2.12319,0,0,1,.60908,1.51791l-.76254,68.017a2.11556,2.11556,0,0,1-.69123,1.54877,2.1478,2.1478,0,0,1-1.6145.56065,73.3615,73.3615,0,0,1-49.61222-121.606,2.14873,2.14873,0,0,1,1.551-.72551C476.6589,379.647,476.68547,379.64691,476.71192,379.64723Z"
     transform="translate(-210.43251 -174.87964)"
     fill="#e6e6e6"
     id="path520" />
  <path
     d="M526.47146,355.56136a2.15453,2.15453,0,0,1,1.46424.59838,2.11709,2.11709,0,0,1,.65725,1.56556l-.68791,61.36918a2.13689,2.13689,0,0,1-3.66432,1.47006L481.5392,376.89477a2.14134,2.14134,0,0,1,.03578-3.02811q.03872-.03771.07922-.0735A73.51556,73.51556,0,0,1,526.33883,355.564C526.38292,355.56174,526.42738,355.56094,526.47146,355.56136Z"
     transform="translate(-210.43251 -174.87964)"
     fill="#6c63ff"
     id="path522" />
  <path
     d="M460.06053,427.365a9.97532,9.97532,0,0,0-7.666,3.58362l-44.80957-1.40076-1.7539-7.55432-23.18946,11.31628,3,20.68915,68.29029-8.7439a9.99612,9.99612,0,1,0,6.12866-17.89007Z"
     transform="translate(-210.43251 -174.87964)"
     fill="#9f616a"
     id="path524" />
  <path
     d="M378.86351,441.83085,377.6179,380.198a16.32125,16.32125,0,1,1,32.63916-.33008v45.043Z"
     transform="translate(-210.43251 -174.87964)"
     fill="#cbcbcb"
     id="path526" />
  <path
     d="M592.43251,724.87964h-381a1,1,0,1,1,0-2h381a1,1,0,0,1,0,2Z"
     transform="translate(-210.43251 -174.87964)"
     fill="#cbcbcb"
     id="path528" />
  <rect
     x="181.00076"
     y="-707.32056"
     width="295.03836"
     height="200.38399"
     transform="rotate(90)"
     fill="#2f2e41"
     id="rect6"
     style="stroke-width:1.07573" />
  <rect
     x="472.51157"
     y="171.99197"
     width="269.23389"
     height="117.11446"
     fill="#3f3d56"
     id="rect8"
     style="stroke-width:1.07573" />
  <rect
     x="472.51157"
     y="302.61963"
     width="269.23389"
     height="117.11446"
     fill="#3f3d56"
     id="rect10"
     style="stroke-width:1.07573" />
  <rect
     x="472.51157"
     y="433.24731"
     width="269.23389"
     height="117.11446"
     fill="#3f3d56"
     id="rect12"
     style="stroke-width:1.07573" />
  <rect
     x="472.51157"
     y="221.64882"
     width="269.23389"
     height="18.017611"
     fill="#6c63ff"
     id="rect14"
     style="stroke-width:1.07573" />
  <rect
     x="472.51157"
     y="352.27655"
     width="269.23389"
     height="18.017611"
     fill="#6c63ff"
     id="rect16"
     style="stroke-width:1.07573" />
  <rect
     x="472.51157"
     y="482.90421"
     width="269.23389"
     height="18.017611"
     fill="#6c63ff"
     id="rect18"
     style="stroke-width:1.07573" />
  <ellipse
     cx="689.3374"
     cy="188.88348"
     fill="#6c63ff"
     id="circle20"
     rx="6.1656613"
     ry="6.7566037"
     style="stroke-width:1.07573" />
  <ellipse
     cx="710.91724"
     cy="188.88348"
     fill="#6c63ff"
     id="circle22"
     rx="6.1656613"
     ry="6.7566037"
     style="stroke-width:1.07573" />
  <ellipse
     cx="732.49707"
     cy="188.88348"
     fill="#6c63ff"
     id="circle24"
     rx="6.1656613"
     ry="6.7566037"
     style="stroke-width:1.07573" />
  <ellipse
     cx="689.3374"
     cy="317.25894"
     fill="#6c63ff"
     id="circle26"
     rx="6.1656613"
     ry="6.7566037"
     style="stroke-width:1.07573" />
  <ellipse
     cx="710.91724"
     cy="317.25894"
     fill="#6c63ff"
     id="circle28"
     rx="6.1656613"
     ry="6.7566037"
     style="stroke-width:1.07573" />
  <ellipse
     cx="732.49707"
     cy="317.25894"
     fill="#6c63ff"
     id="circle30"
     rx="6.1656613"
     ry="6.7566037"
     style="stroke-width:1.07573" />
  <ellipse
     cx="689.3374"
     cy="445.6344"
     fill="#6c63ff"
     id="circle32"
     rx="6.1656613"
     ry="6.7566037"
     style="stroke-width:1.07573" />
  <ellipse
     cx="710.91724"
     cy="445.6344"
     fill="#6c63ff"
     id="circle34"
     rx="6.1656613"
     ry="6.7566037"
     style="stroke-width:1.07573" />
  <ellipse
     cx="732.49707"
     cy="445.6344"
     fill="#6c63ff"
     id="circle36"
     rx="6.1656613"
     ry="6.7566037"
     style="stroke-width:1.07573" />
</svg>
